PathFileType	4	(X/Y/Z)	..\data\2015026\dynamic\2015026_C4_04.trc
DataRate	CameraRate	NumFrames	NumMarkers	Units	OrigDataRate	OrigDataStartFrame	OrigNumFrames
100.000000	100.000000	4	48	mm	100.000000	20	160
Frame#	Time	L_IAS			L_IPS			R_IPS			R_IAS			L_FTC			L_FLE			L_FAX			L_TTC			L_FAL			L_FCC			L_FM1			L_FM2			L_FM5			R_FTC			R_FLE			R_FAX			R_TTC			R_FAL			R_FCC			R_FM1			R_FM2			R_FM5			CV7			TV10			SXS			SJN			L_SIA			L_SRS			L_SAA			L_SAE			L_HLE			L_HME			L_UOA			L_RSP			L_UHE			L_HM2			L_HM5			R_SIA			R_SRS			R_SAA			R_SAE			R_HLE			R_HME			R_UOA			R_RSP			R_UHE			R_HM2			R_HM5			
		X1	Y1	Z1	X2	Y2	Z2	X3	Y3	Z3	X4	Y4	Z4	X5	Y5	Z5	X6	Y6	Z6	X7	Y7	Z7	X8	Y8	Z8	X9	Y9	Z9	X10	Y10	Z10	X11	Y11	Z11	X12	Y12	Z12	X13	Y13	Z13	X14	Y14	Z14	X15	Y15	Z15	X16	Y16	Z16	X17	Y17	Z17	X18	Y18	Z18	X19	Y19	Z19	X20	Y20	Z20	X21	Y21	Z21	X22	Y22	Z22	X23	Y23	Z23	X24	Y24	Z24	X25	Y25	Z25	X26	Y26	Z26	X27	Y27	Z27	X28	Y28	Z28	X29	Y29	Z29	X30	Y30	Z30	X31	Y31	Z31	X32	Y32	Z32	X33	Y33	Z33	X34	Y34	Z34	X35	Y35	Z35	X36	Y36	Z36	X37	Y37	Z37	X38	Y38	Z38	X39	Y39	Z39	X40	Y40	Z40	X41	Y41	Z41	X42	Y42	Z42	X43	Y43	Z43	X44	Y44	Z44	X45	Y45	Z45	X46	Y46	Z46	X47	Y47	Z47	X48	Y48	Z48	

21	0.2	82.3981170654297	948.4471435546877	-369.8054199218751	-112.1878356933594	936.6301269531252	-330.7018127441407	-116.4033203125	933.7785644531252	-217.3184967041016	67.73307037353517	930.3782348632815	-149.60205078125	27.98040771484376	869.9485473632815	-447.0347595214845	141.2519989013672	458.9514465332032	-373.8877563476563	123.8022766113282	405.7835693359376	-381.6721191406251	177.0529174804688	401.8259582519532	-319.3850097656251	127.1705474853516	65.15346527099611	-364.3076171875001	77.91927337646486	16.95429992675782	-336.7930908203126	259.5898132324219	17.75756645202637	-269.8786621093751	275.6739501953126	33.60739135742188	-322.8073120117188	237.3824920654297	16.29992485046387	-383.6352233886719	-17.626127243042	831.669128417969	-99.05525970458987	13.00236606597901	439.5877685546876	-146.3594360351563	-40.47921752929688	410.5491638183595	-151.2720947265625	3.306892395019532	357.8267517089844	-183.5807342529297	-313.5518493652344	204.4628295898438	-192.4194030761719	-359.6854553222657	211.9035186767579	-247.3600769042969	-266.6417846679688	46.91010665893555	-247.0293884277344	-266.4931335449219	58.17789459228517	-198.0538024902344	-305.9107666015626	81.55917358398439	-159.5758514404297	-73.02071380615236	1425.104248046875	-268.5807495117188	-147.3687591552735	1185.8447265625	-278.7180786132813	78.60591125488283	1122.70166015625	-278.5264892578126	47.39412689208985	1339.75	-279.1203002929688	-147.5272216796875	1221.103271484375	-357.5341491699219	-119.8064270019532	1353.71826171875	-357.0077209472657	-74.89649963378908	1361.530029296875	-438.6867065429689	-35.15021514892579	1359.40478515625	-458.1463928222657	-56.47802352905275	1049.251342773438	-514.2730102539064	-90.48195648193361	1040.1005859375	-441.8291015625001	-90.68597412109376	1035.024169921875	-489.5496826171876	18.46433258056641	811.329284667969	-465.4585876464845	-43.48323822021485	816.0869140625002	-511.7930297851564	32.22823715209962	728.3099365234376	-466.2395019531251	-56.55461883544923	742.4967651367189	-508.4571838378907	-148.6771392822266	1223.562377929688	-193.0235900878907	-121.5243453979492	1354.070556640625	-224.5148010253907	-72.65687561035158	1367.727783203125	-118.0818328857422	-19.25748634338379	1363.8349609375	-95.94023895263673	-52.00625228881837	1051.886962890625	-41.66316986083985	-68.58773040771486	1037.246215820313	-117.927978515625	-79.1211395263672	1026.322387695313	-72.71055603027345	62.4135208129883	823.0297851562502	-34.63161087036134	-16.22457504272461	808.9012451171877	-34.25175476074219	84.35635375976564	738.4856567382814	-23.11111068725586	-15.86374950408936	735.9251098632814	-32.77250671386719	
22	0.21	94.8290481567383	950.3200683593752	-370.3218688964844	-99.65356445312503	938.956481933594	-331.3805541992188	-104.0896606445313	935.9475097656252	-218.0894165039063	80.08211517333986	932.2753906250002	-150.1439208984375	39.52111053466798	871.6766357421877	-447.6634826660157	145.8997650146485	458.8534545898439	-374.2459411621094	127.764404296875	405.8150939941407	-382.1330261230469	180.6752471923828	401.3190307617189	-319.6387634277344	127.390609741211	65.08143615722658	-364.3505554199219	78.07684326171876	16.92008590698243	-336.8512878417969	259.5913391113282	17.77618598937989	-269.7836608886719	275.8043212890626	33.77446365356446	-322.8429870605469	237.5132141113282	16.58484077453614	-383.8203430175782	-4.98113250732422	833.5716552734377	-99.85467529296878	37.9574203491211	441.9344787597657	-144.3808135986328	-14.59191703796387	413.2569274902345	-149.8550415039063	29.71118927001954	360.5055847167969	-181.2068481445313	-287.5921020507813	208.3263702392579	-192.9059143066407	-333.2662963867188	214.9800262451172	-248.4206695556641	-238.2140502929688	50.34677886962892	-243.3275146484376	-239.189926147461	62.3467483520508	-194.8605194091797	-279.6934509277344	86.7842483520508	-157.6385040283203	-59.85111236572267	1427.390258789063	-268.6080322265626	-134.5045471191407	1188.304321289063	-279.5418090820313	91.37850189208986	1124.764404296875	-278.2404174804688	60.37731170654298	1341.801513671875	-278.6866455078126	-134.1778411865235	1223.615600585938	-358.3030090332032	-106.3077545166016	1356.224853515625	-357.3961486816407	-60.97746658325197	1364.110107421875	-438.8650817871095	-21.09788894653321	1361.989868164063	-458.0908813476564	-39.64487075805665	1051.744750976563	-515.3133544921876	-74.48277282714845	1042.06494140625	-443.3098144531251	-74.1440887451172	1037.090454101563	-490.9715576171876	37.33685684204102	814.515808105469	-465.9576110839845	-24.13300704956055	818.6799316406252	-512.9564208984376	52.54564666748048	732.0620117187501	-467.1405639648439	-36.06244659423829	744.8905639648439	-510.0285644531251	-136.2731323242188	1225.9111328125	-193.8304901123047	-108.6066970825196	1356.396850585938	-224.8615112304688	-60.31796264648439	1369.769165039063	-118.1949920654297	-7.067654609680178	1365.651489257813	-95.73008728027345	-41.69464874267579	1053.634033203125	-42.92432022094727	-57.85382461547853	1039.50439453125	-119.3966979980469	-68.9387893676758	1028.719970703125	-74.29771423339845	69.15079498291017	823.216735839844	-35.48893737792969	-9.57815742492676	810.3618774414065	-35.70684051513673	89.50904846191408	738.1127319335939	-24.04713439941407	-10.579345703125	737.4230346679689	-34.30781555175782	
23	0.22	107.0598373413086	952.0423583984377	-370.7915649414063	-87.26287078857423	941.1889648437502	-332.0002136230469	-91.91915893554689	938.2003173828127	-218.8183288574219	92.31291961669923	934.3082275390627	-150.5669403076172	50.98106002807619	873.1625976562502	-448.1560058593751	150.3001556396485	458.7389221191407	-374.4997558593751	131.4368438720703	405.8266906738282	-382.4675903320313	184.0843353271485	400.8141174316407	-319.8152160644532	127.5155487060547	65.01522064208986	-364.3488769531251	78.13924407958986	16.86084747314453	-336.8512268066407	259.5520324707032	17.79900741577149	-269.6695556640626	275.8476257324219	33.91705322265626	-322.8355102539063	237.5728149414063	16.8281421661377	-383.8820800781251	7.156238079071047	835.803161621094	-100.5956039428711	62.65277481079103	444.8813476562501	-142.5635375976563	11.0910530090332	416.2128906250001	-148.5687866210938	56.05110549926759	363.7192382812501	-179.1951446533203	-260.5264892578126	210.6163940429688	-193.3211364746094	-305.9988708496094	215.9727783203126	-249.2484436035157	-207.0285034179688	53.23095703125001	-239.9218750000001	-209.1157379150391	66.0137176513672	-191.8077850341797	-250.8972930908204	90.80605316162111	-155.7628784179688	-46.78746414184571	1429.625854492188	-268.5759277343751	-121.7853393554688	1190.72314453125	-280.4141235351563	103.9713134765625	1126.774047851563	-277.8143920898438	73.23534393310548	1343.760498046875	-278.1746826171876	-120.9454345703125	1226.154174804688	-359.1141662597657	-92.8997039794922	1358.722778320313	-357.7730712890626	-47.1014747619629	1366.69921875	-438.9973754882814	-7.074541091918947	1364.566040039063	-457.9590454101564	-22.60082244873047	1054.23876953125	-516.3452758789064	-58.462947845459	1044.033325195313	-444.8153381347657	-57.54551696777345	1039.180541992188	-492.4020080566407	56.27638244628908	817.7835693359377	-466.4195556640626	-4.684275150299073	821.3282470703127	-514.1060180664064	72.97212219238283	735.8947143554689	-468.070281982422	-15.41471767425537	747.3438720703126	-511.6935424804689	-124.0471267700196	1228.191528320313	-194.6946716308594	-95.81385803222658	1358.654418945313	-225.1946411132813	-48.17383956909181	1371.70751953125	-118.2871398925782	4.904603958129884	1367.362426757813	-95.4558792114258	-31.56257247924805	1055.293334960938	-44.1402702331543	-47.23676300048829	1041.654663085938	-120.8180389404297	-58.89341354370119	1031.019653320313	-75.84970855712892	75.90305328369142	823.4661865234377	-36.29523468017579	-2.91868543624878	811.809509277344	-37.12336730957032	94.73068237304689	737.8543090820314	-24.9650058746338	-5.215245723724366	738.9428710937501	-35.80815124511719	
24	0.23	119.1163177490235	953.632507324219	-371.2184143066407	-74.99522399902345	943.3188476562502	-332.5473937988282	-79.85572814941408	940.5227661132815	-219.4808044433594	104.4503860473633	936.466003417969	-150.8811492919922	62.43429183959962	874.4146728515627	-448.504852294922	154.4851684570313	458.6087341308595	-374.6500549316407	134.8506011962891	405.8236694335939	-382.6787109375001	187.3236999511719	400.3107910156251	-319.9225158691407	127.5706253051758	64.96175384521486	-364.3062438964844	78.1204299926758	16.79996109008789	-336.8013305664063	259.4841308593751	17.78870964050293	-269.5396728515626	275.8287353515626	33.99654388427735	-322.7896728515626	237.5719909667969	17.00524139404297	-383.8471374511719	18.88099098205567	838.3144531250002	-101.233642578125	87.04603576660158	448.3644104003907	-140.9147644042969	36.49706649780274	419.3562011718751	-147.4028778076172	82.2642288208008	367.3937377929688	-177.5205383300782	-232.4649353027344	211.2674407958985	-193.5936737060547	-277.9740295410157	214.894271850586	-249.7794189453126	-173.4817657470703	55.46540451049806	-236.9302520751954	-176.6135711669922	69.00951385498048	-189.0125427246094	-219.7772674560547	93.4573440551758	-154.0090637207032	-33.83238220214844	1431.799072265625	-268.4981079101563	-109.1899642944336	1193.076049804688	-281.3309936523438	116.4031295776367	1128.740234375	-277.2728576660157	85.97560119628908	1345.629150390625	-277.6086120605469	-107.8225173950196	1228.701049804688	-359.9749145507813	-79.58760833740236	1361.190795898438	-358.1447753906251	-33.28120803833009	1369.288452148438	-439.0933837890626	6.908197402954103	1367.130737304688	-457.7605590820314	-5.378859996795655	1056.739624023438	-517.3538818359376	-42.4126319885254	1046.015625	-446.3173217773439	-40.90035629272462	1041.29638671875	-493.8186950683595	75.26776123046876	821.1276855468752	-466.8446655273439	14.83967018127442	824.0349121093752	-515.2276000976564	93.47118377685548	739.7897338867189	-469.0159301757814	5.346395492553712	749.8649291992189	-513.4241333007814	-111.9651412963867	1230.382202148438	-195.6099090576172	-83.13767242431642	1360.822387695313	-225.5200347900391	-36.20087051391602	1373.541137695313	-118.3708572387696	16.68702507019043	1368.976684570313	-95.13984680175783	-21.62533760070801	1056.87353515625	-45.31408691406251	-36.7472267150879	1043.707397460938	-122.1956253051758	-48.99713516235353	1033.225219726563	-77.37115478515626	82.68509674072267	823.7913818359377	-37.03737258911134	3.763287544250489	813.2460937500002	-38.50056838989259	100.0500717163086	737.7238769531251	-25.85128784179688	0.2554729580879212	740.4789428710939	-37.28044891357423	
